<mxfile host="app.diagrams.net" modified="2021-05-14T11:03:56.567Z" agent="5.0 (Windows NT 10.0; Win64; x64) AppleWebKit/537.36 (KHTML, like Gecko) Chrome/90.0.4430.93 Safari/537.36 Edg/90.0.818.56" etag="MaR85aHRsFf9rQInMYtR" version="14.6.13" type="github">
  <diagram id="C5RBs43oDa-KdzZeNtuy" name="Page-1">
    <mxGraphModel dx="1384" dy="773" grid="1" gridSize="10" guides="1" tooltips="1" connect="1" arrows="1" fold="1" page="1" pageScale="1" pageWidth="827" pageHeight="1169" math="0" shadow="0">
      <root>
        <mxCell id="WIyWlLk6GJQsqaUBKTNV-0" />
        <mxCell id="WIyWlLk6GJQsqaUBKTNV-1" parent="WIyWlLk6GJQsqaUBKTNV-0" />
        <mxCell id="GGegHECe6kRys-44wubm-0" value="Start" style="ellipse;whiteSpace=wrap;html=1;fontSize=30;" parent="WIyWlLk6GJQsqaUBKTNV-1" vertex="1">
          <mxGeometry x="280" y="10" width="160" height="50" as="geometry" />
        </mxCell>
        <mxCell id="GGegHECe6kRys-44wubm-1" value="" style="endArrow=classic;html=1;fontSize=30;" parent="WIyWlLk6GJQsqaUBKTNV-1" edge="1">
          <mxGeometry width="50" height="50" relative="1" as="geometry">
            <mxPoint x="359.5" y="60" as="sourcePoint" />
            <mxPoint x="359.5" y="110" as="targetPoint" />
          </mxGeometry>
        </mxCell>
        <mxCell id="GGegHECe6kRys-44wubm-13" value="" style="edgeStyle=orthogonalEdgeStyle;rounded=0;orthogonalLoop=1;jettySize=auto;html=1;fontSize=25;" parent="WIyWlLk6GJQsqaUBKTNV-1" source="GGegHECe6kRys-44wubm-2" target="GGegHECe6kRys-44wubm-4" edge="1">
          <mxGeometry relative="1" as="geometry" />
        </mxCell>
        <mxCell id="GGegHECe6kRys-44wubm-2" value="Ввод x" style="rounded=1;whiteSpace=wrap;html=1;fontSize=30;arcSize=50;" parent="WIyWlLk6GJQsqaUBKTNV-1" vertex="1">
          <mxGeometry x="280" y="320" width="160" height="60" as="geometry" />
        </mxCell>
        <mxCell id="GGegHECe6kRys-44wubm-3" value="" style="endArrow=classic;html=1;fontSize=30;" parent="WIyWlLk6GJQsqaUBKTNV-1" edge="1">
          <mxGeometry width="50" height="50" relative="1" as="geometry">
            <mxPoint x="359.5" y="380" as="sourcePoint" />
            <mxPoint x="359.5" y="420" as="targetPoint" />
          </mxGeometry>
        </mxCell>
        <mxCell id="GGegHECe6kRys-44wubm-4" value="" style="rhombus;whiteSpace=wrap;html=1;fontSize=30;" parent="WIyWlLk6GJQsqaUBKTNV-1" vertex="1">
          <mxGeometry x="290" y="420" width="140" height="80" as="geometry" />
        </mxCell>
        <mxCell id="GGegHECe6kRys-44wubm-6" value="" style="endArrow=none;html=1;fontSize=30;" parent="WIyWlLk6GJQsqaUBKTNV-1" edge="1">
          <mxGeometry width="50" height="50" relative="1" as="geometry">
            <mxPoint x="430" y="459.5" as="sourcePoint" />
            <mxPoint x="620" y="460" as="targetPoint" />
          </mxGeometry>
        </mxCell>
        <mxCell id="GGegHECe6kRys-44wubm-7" value="" style="endArrow=classic;html=1;fontSize=30;" parent="WIyWlLk6GJQsqaUBKTNV-1" edge="1">
          <mxGeometry width="50" height="50" relative="1" as="geometry">
            <mxPoint x="620" y="460" as="sourcePoint" />
            <mxPoint x="620" y="500" as="targetPoint" />
          </mxGeometry>
        </mxCell>
        <mxCell id="GGegHECe6kRys-44wubm-8" value="&lt;span style=&quot;font-size: 20px&quot;&gt;Вывод &quot;illegal value of x&quot;&lt;/span&gt;" style="rounded=1;whiteSpace=wrap;html=1;fontSize=30;arcSize=50;" parent="WIyWlLk6GJQsqaUBKTNV-1" vertex="1">
          <mxGeometry x="540" y="500" width="160" height="60" as="geometry" />
        </mxCell>
        <mxCell id="GGegHECe6kRys-44wubm-9" value="" style="endArrow=classic;html=1;fontSize=30;" parent="WIyWlLk6GJQsqaUBKTNV-1" edge="1">
          <mxGeometry width="50" height="50" relative="1" as="geometry">
            <mxPoint x="359.5" y="270" as="sourcePoint" />
            <mxPoint x="359.5" y="320" as="targetPoint" />
          </mxGeometry>
        </mxCell>
        <mxCell id="GGegHECe6kRys-44wubm-10" value="EULER:=0.5772156649015328606" style="rounded=1;whiteSpace=wrap;html=1;fontSize=15;arcSize=48;" parent="WIyWlLk6GJQsqaUBKTNV-1" vertex="1">
          <mxGeometry x="240" y="110" width="240" height="60" as="geometry" />
        </mxCell>
        <mxCell id="GGegHECe6kRys-44wubm-11" value="" style="endArrow=classic;html=1;fontSize=30;" parent="WIyWlLk6GJQsqaUBKTNV-1" edge="1">
          <mxGeometry width="50" height="50" relative="1" as="geometry">
            <mxPoint x="359.5" y="170" as="sourcePoint" />
            <mxPoint x="359.5" y="220" as="targetPoint" />
          </mxGeometry>
        </mxCell>
        <mxCell id="GGegHECe6kRys-44wubm-12" value="EPS:=1e-10" style="rounded=1;whiteSpace=wrap;html=1;fontSize=25;arcSize=48;" parent="WIyWlLk6GJQsqaUBKTNV-1" vertex="1">
          <mxGeometry x="280" y="220" width="160" height="60" as="geometry" />
        </mxCell>
        <mxCell id="GGegHECe6kRys-44wubm-15" value="" style="endArrow=classic;html=1;fontSize=25;exitX=0.5;exitY=1;exitDx=0;exitDy=0;entryX=0.5;entryY=0;entryDx=0;entryDy=0;" parent="WIyWlLk6GJQsqaUBKTNV-1" source="GGegHECe6kRys-44wubm-4" target="GGegHECe6kRys-44wubm-16" edge="1">
          <mxGeometry width="50" height="50" relative="1" as="geometry">
            <mxPoint x="350" y="570" as="sourcePoint" />
            <mxPoint x="360" y="530" as="targetPoint" />
          </mxGeometry>
        </mxCell>
        <mxCell id="GGegHECe6kRys-44wubm-16" value="a:=x" style="rounded=1;whiteSpace=wrap;html=1;fontSize=30;arcSize=48;" parent="WIyWlLk6GJQsqaUBKTNV-1" vertex="1">
          <mxGeometry x="300" y="540" width="120" height="60" as="geometry" />
        </mxCell>
        <mxCell id="GGegHECe6kRys-44wubm-18" value="" style="endArrow=classic;html=1;fontSize=30;" parent="WIyWlLk6GJQsqaUBKTNV-1" edge="1">
          <mxGeometry width="50" height="50" relative="1" as="geometry">
            <mxPoint x="360" y="600" as="sourcePoint" />
            <mxPoint x="360" y="640" as="targetPoint" />
          </mxGeometry>
        </mxCell>
        <mxCell id="GGegHECe6kRys-44wubm-19" value="S:=a" style="rounded=1;whiteSpace=wrap;html=1;fontSize=30;arcSize=48;" parent="WIyWlLk6GJQsqaUBKTNV-1" vertex="1">
          <mxGeometry x="300" y="640" width="120" height="60" as="geometry" />
        </mxCell>
        <mxCell id="GGegHECe6kRys-44wubm-20" value="" style="endArrow=classic;html=1;fontSize=30;" parent="WIyWlLk6GJQsqaUBKTNV-1" edge="1">
          <mxGeometry width="50" height="50" relative="1" as="geometry">
            <mxPoint x="359.5" y="700" as="sourcePoint" />
            <mxPoint x="359.5" y="740" as="targetPoint" />
          </mxGeometry>
        </mxCell>
        <mxCell id="GGegHECe6kRys-44wubm-21" value="k:=1" style="rounded=1;whiteSpace=wrap;html=1;fontSize=30;arcSize=48;" parent="WIyWlLk6GJQsqaUBKTNV-1" vertex="1">
          <mxGeometry x="300" y="740" width="120" height="60" as="geometry" />
        </mxCell>
        <mxCell id="GGegHECe6kRys-44wubm-24" value="" style="endArrow=classic;html=1;fontSize=30;" parent="WIyWlLk6GJQsqaUBKTNV-1" edge="1">
          <mxGeometry width="50" height="50" relative="1" as="geometry">
            <mxPoint x="360" y="800" as="sourcePoint" />
            <mxPoint x="360" y="840" as="targetPoint" />
          </mxGeometry>
        </mxCell>
        <mxCell id="GGegHECe6kRys-44wubm-26" value="" style="rhombus;whiteSpace=wrap;html=1;fontSize=30;" parent="WIyWlLk6GJQsqaUBKTNV-1" vertex="1">
          <mxGeometry x="290" y="840" width="140" height="80" as="geometry" />
        </mxCell>
        <mxCell id="GGegHECe6kRys-44wubm-27" value="" style="endArrow=none;html=1;fontSize=30;" parent="WIyWlLk6GJQsqaUBKTNV-1" edge="1">
          <mxGeometry width="50" height="50" relative="1" as="geometry">
            <mxPoint x="160" y="1309.5" as="sourcePoint" />
            <mxPoint x="290" y="1309.5" as="targetPoint" />
          </mxGeometry>
        </mxCell>
        <mxCell id="GGegHECe6kRys-44wubm-28" value="" style="endArrow=none;html=1;fontSize=30;" parent="WIyWlLk6GJQsqaUBKTNV-1" edge="1">
          <mxGeometry width="50" height="50" relative="1" as="geometry">
            <mxPoint x="160" y="1310" as="sourcePoint" />
            <mxPoint x="160" y="880" as="targetPoint" />
          </mxGeometry>
        </mxCell>
        <mxCell id="GGegHECe6kRys-44wubm-29" value="" style="endArrow=classic;html=1;fontSize=30;entryX=0;entryY=0.5;entryDx=0;entryDy=0;" parent="WIyWlLk6GJQsqaUBKTNV-1" target="GGegHECe6kRys-44wubm-26" edge="1">
          <mxGeometry width="50" height="50" relative="1" as="geometry">
            <mxPoint x="160" y="880" as="sourcePoint" />
            <mxPoint x="210" y="410" as="targetPoint" />
          </mxGeometry>
        </mxCell>
        <mxCell id="GGegHECe6kRys-44wubm-40" style="edgeStyle=orthogonalEdgeStyle;rounded=0;orthogonalLoop=1;jettySize=auto;html=1;exitX=0.5;exitY=1;exitDx=0;exitDy=0;fontSize=20;entryX=0.5;entryY=0;entryDx=0;entryDy=0;" parent="WIyWlLk6GJQsqaUBKTNV-1" source="GGegHECe6kRys-44wubm-30" target="GGegHECe6kRys-44wubm-31" edge="1">
          <mxGeometry relative="1" as="geometry">
            <mxPoint x="360" y="1150" as="targetPoint" />
          </mxGeometry>
        </mxCell>
        <mxCell id="GGegHECe6kRys-44wubm-30" value="S:=S+a" style="rounded=1;whiteSpace=wrap;html=1;fontSize=30;arcSize=48;" parent="WIyWlLk6GJQsqaUBKTNV-1" vertex="1">
          <mxGeometry x="280" y="1060" width="160" height="60" as="geometry" />
        </mxCell>
        <mxCell id="GGegHECe6kRys-44wubm-42" style="edgeStyle=orthogonalEdgeStyle;rounded=0;orthogonalLoop=1;jettySize=auto;html=1;exitX=0.5;exitY=1;exitDx=0;exitDy=0;entryX=0.5;entryY=0;entryDx=0;entryDy=0;fontSize=20;" parent="WIyWlLk6GJQsqaUBKTNV-1" source="GGegHECe6kRys-44wubm-31" target="GGegHECe6kRys-44wubm-41" edge="1">
          <mxGeometry relative="1" as="geometry" />
        </mxCell>
        <mxCell id="GGegHECe6kRys-44wubm-31" value="k:=k+1" style="rounded=1;whiteSpace=wrap;html=1;fontSize=30;arcSize=48;" parent="WIyWlLk6GJQsqaUBKTNV-1" vertex="1">
          <mxGeometry x="280" y="1160" width="160" height="60" as="geometry" />
        </mxCell>
        <mxCell id="GGegHECe6kRys-44wubm-38" style="edgeStyle=orthogonalEdgeStyle;rounded=0;orthogonalLoop=1;jettySize=auto;html=1;exitX=0.5;exitY=1;exitDx=0;exitDy=0;entryX=0.5;entryY=0;entryDx=0;entryDy=0;fontSize=20;" parent="WIyWlLk6GJQsqaUBKTNV-1" source="GGegHECe6kRys-44wubm-33" edge="1">
          <mxGeometry relative="1" as="geometry">
            <mxPoint x="360" y="1060" as="targetPoint" />
          </mxGeometry>
        </mxCell>
        <mxCell id="GGegHECe6kRys-44wubm-33" value="a:=a(x*k/(k+1)**2" style="rounded=1;whiteSpace=wrap;html=1;fontSize=20;arcSize=48;" parent="WIyWlLk6GJQsqaUBKTNV-1" vertex="1">
          <mxGeometry x="280" y="960" width="160" height="60" as="geometry" />
        </mxCell>
        <mxCell id="GGegHECe6kRys-44wubm-34" value="" style="endArrow=classic;html=1;fontSize=30;" parent="WIyWlLk6GJQsqaUBKTNV-1" edge="1">
          <mxGeometry width="50" height="50" relative="1" as="geometry">
            <mxPoint x="359.5" y="920" as="sourcePoint" />
            <mxPoint x="359.5" y="960" as="targetPoint" />
          </mxGeometry>
        </mxCell>
        <mxCell id="GGegHECe6kRys-44wubm-45" style="edgeStyle=orthogonalEdgeStyle;rounded=0;orthogonalLoop=1;jettySize=auto;html=1;exitX=0.5;exitY=1;exitDx=0;exitDy=0;entryX=0.5;entryY=0;entryDx=0;entryDy=0;fontSize=15;" parent="WIyWlLk6GJQsqaUBKTNV-1" source="GGegHECe6kRys-44wubm-41" target="GGegHECe6kRys-44wubm-43" edge="1">
          <mxGeometry relative="1" as="geometry" />
        </mxCell>
        <mxCell id="GGegHECe6kRys-44wubm-41" value="" style="rhombus;whiteSpace=wrap;html=1;fontSize=30;" parent="WIyWlLk6GJQsqaUBKTNV-1" vertex="1">
          <mxGeometry x="290" y="1270" width="140" height="80" as="geometry" />
        </mxCell>
        <mxCell id="GGegHECe6kRys-44wubm-47" style="edgeStyle=orthogonalEdgeStyle;rounded=0;orthogonalLoop=1;jettySize=auto;html=1;exitX=0.5;exitY=1;exitDx=0;exitDy=0;entryX=0.5;entryY=0;entryDx=0;entryDy=0;fontSize=25;" parent="WIyWlLk6GJQsqaUBKTNV-1" source="GGegHECe6kRys-44wubm-43" target="GGegHECe6kRys-44wubm-46" edge="1">
          <mxGeometry relative="1" as="geometry" />
        </mxCell>
        <mxCell id="GGegHECe6kRys-44wubm-43" value="Ei(x)=EULER+log(|x|)+S" style="rounded=1;whiteSpace=wrap;html=1;fontSize=15;arcSize=48;" parent="WIyWlLk6GJQsqaUBKTNV-1" vertex="1">
          <mxGeometry x="270" y="1390" width="180" height="60" as="geometry" />
        </mxCell>
        <mxCell id="GGegHECe6kRys-44wubm-50" style="edgeStyle=orthogonalEdgeStyle;rounded=0;orthogonalLoop=1;jettySize=auto;html=1;exitX=0.5;exitY=1;exitDx=0;exitDy=0;entryX=0.5;entryY=0;entryDx=0;entryDy=0;fontSize=25;" parent="WIyWlLk6GJQsqaUBKTNV-1" source="GGegHECe6kRys-44wubm-46" target="GGegHECe6kRys-44wubm-49" edge="1">
          <mxGeometry relative="1" as="geometry" />
        </mxCell>
        <mxCell id="GGegHECe6kRys-44wubm-46" value="&lt;font style=&quot;font-size: 25px;&quot;&gt;Вывод &quot;Ei(x)&quot;&lt;/font&gt;" style="rounded=1;whiteSpace=wrap;html=1;fontSize=25;arcSize=48;" parent="WIyWlLk6GJQsqaUBKTNV-1" vertex="1">
          <mxGeometry x="270" y="1490" width="180" height="60" as="geometry" />
        </mxCell>
        <mxCell id="GGegHECe6kRys-44wubm-49" value="End" style="ellipse;whiteSpace=wrap;html=1;fontSize=30;" parent="WIyWlLk6GJQsqaUBKTNV-1" vertex="1">
          <mxGeometry x="280" y="1600" width="160" height="50" as="geometry" />
        </mxCell>
        <mxCell id="5n-9TFz0ao-bo6ygWk6A-0" value="" style="endArrow=classic;html=1;" edge="1" parent="WIyWlLk6GJQsqaUBKTNV-1">
          <mxGeometry width="50" height="50" relative="1" as="geometry">
            <mxPoint x="620" y="560" as="sourcePoint" />
            <mxPoint x="620" y="810" as="targetPoint" />
          </mxGeometry>
        </mxCell>
        <mxCell id="5n-9TFz0ao-bo6ygWk6A-1" value="End" style="ellipse;whiteSpace=wrap;html=1;fontSize=30;" vertex="1" parent="WIyWlLk6GJQsqaUBKTNV-1">
          <mxGeometry x="540" y="810" width="160" height="50" as="geometry" />
        </mxCell>
      </root>
    </mxGraphModel>
  </diagram>
</mxfile>
